<?xml version="1.0" encoding="UTF-8"?>
<svg xmlns="http://www.w3.org/2000/svg" version="1.1" viewBox="0 0 435.71 174.57">
  <!-- Generator: Adobe Illustrator 29.0.1, SVG Export Plug-In . SVG Version: 2.1.0 Build 192)  -->
  <defs>
    <style>
      .st0 {
        fill: #00273c;
      }

      .st1 {
        mix-blend-mode: color-dodge;
        opacity: .5;
      }

      .st2 {
        isolation: isolate;
      }

      .st3 {
        fill: #00bff3;
      }

      .st4 {
        fill: #008db4;
      }

      .st5 {
        fill: #ed1c62;
      }

      .st6 {
        fill: #024865;
      }
    </style>
  </defs>
  <g class="st2">
    <g id="Layer_1">
      <path class="st6" d="M77.13,67.34l-1.13,7.68-22.53-24.1c2.72,2.33,23.47,16.4,23.47,16.4l.19.03Z"/>
      <polygon class="st6" points="75.65 99.31 50.39 120.09 67.41 97.9 67.41 97.84 75.65 99.31"/>
      <polygon class="st0" points="120.69 122.25 120.95 122.63 97.19 107.93 98.59 100.52 120.69 122.25"/>
      <path class="st0" d="M121.28,51.46h.03c-1.52,2.65-13.92,24.24-13.47,24.25v.03s-8.76-1.28-8.76-1.28l22.2-22.99Z"/>
      <polygon class="st6" points="105.63 99.14 120.69 122.25 98.59 100.52 105.63 99.14"/>
      <path class="st6" d="M97.97,67.79l23.51-16.6s-.05.08-.17.27h-.03s-22.2,22.99-22.2,22.99l-.13-.03-1.07-6.6.08-.03Z"/>
      <polygon class="st6" points="76 75.01 87.51 87.76 0 85.96 66.34 76.42 76 75.01"/>
      <polygon class="st6" points="76.64 107.69 75.65 99.31 87.51 87.76 84.5 174.57 76.64 107.69"/>
      <polygon class="st0" points="105.63 99.14 98.59 100.52 87.51 87.76 174.59 85.5 105.63 99.14"/>
      <polygon class="st4" points="97.89 67.82 98.96 74.42 87.51 87.76 86.97 0 97.89 67.82"/>
      <polygon class="st6" points="99.09 74.45 107.85 75.73 174.59 85.5 87.51 87.76 98.96 74.42 99.09 74.45"/>
      <polygon class="st0" points="97.19 107.93 84.5 174.57 87.51 87.76 98.59 100.52 97.19 107.93"/>
      <polygon class="st3" points="86.97 0 87.51 87.76 76 75.01 77.13 67.34 86.97 0"/>
      <polygon class="st0" points="87.51 87.76 75.65 99.31 67.41 97.84 0 85.96 87.51 87.76"/>
      <polygon class="st0" points="75.65 99.31 76.64 107.69 50.39 120.09 75.65 99.31"/>
      <path class="st0" d="M53.47,50.91l22.53,24.1-9.66,1.4-.03-.19s-10.82-21.7-12.85-25.32Z"/>
      <g class="st1">
        <polygon class="st5" points="85.66 141.2 84.5 174.57 85.24 170.69 85.66 141.2"/>
      </g>
      <g>
        <path class="st0" d="M22.85,78.6c4.1-29.07,27.43-51.92,56.52-55.48l1.19-8.15c-34.42,3.17-62.14,30.37-65.89,64.8l8.18-1.18Z"/>
        <path class="st0" d="M94.53,23.04c29.43,3.26,52.89,26.15,57.19,55.11l8.21,1.2c-3.95-34.34-31.85-61.64-66.71-64.44l1.31,8.13Z"/>
        <path class="st0" d="M77.67,152.14c-29.38-4.39-52.31-28.44-55.15-58.14l-8.12-1.43c2.29,35.07,29.49,63.62,64.23,67.75l-.96-8.18Z"/>
        <path class="st0" d="M152.14,93.96c-2.98,31.37-28.26,56.19-59.59,58.69l-1.54,8.09c36.96-1.84,66.94-31.33,69.26-68.39l-8.13,1.61Z"/>
      </g>
      <g>
        <path class="st0" d="M202.18,78.2h-26.07v-3.27c2.23,0,3.86-.16,4.9-.49,1.04-.33,1.72-1.05,2.05-2.17.33-1.11.49-2.81.49-5.09v-34.66h-3.42c-2.79,0-4.88.33-6.27.99-1.39.66-2.39,1.77-3,3.34-.61,1.57-1.19,3.72-1.75,6.46h-3.8l.84-15.05h46.28l.68,15.05h-3.8c-.56-2.74-1.15-4.89-1.79-6.46-.63-1.57-1.63-2.69-3-3.34-1.37-.66-3.47-.99-6.31-.99h-3.34v34.66c0,2.28.16,3.98.49,5.09.33,1.12,1.01,1.84,2.05,2.17,1.04.33,2.62.49,4.75.49v3.27Z"/>
        <path class="st0" d="M239.8,78.2h-25.92v-3.27c1.92,0,3.39-.15,4.41-.46,1.01-.3,1.71-.96,2.09-1.98.38-1.01.57-2.56.57-4.64v-30.4c0-1.52-.17-2.71-.49-3.57-.33-.86-1-1.47-2.01-1.82s-2.53-.53-4.56-.53v-3.27h24.78c3.55,0,6.83.39,9.84,1.18,3.01.79,5.45,2.1,7.3,3.95,1.85,1.85,2.77,4.4,2.77,7.64,0,2.79-.56,5.04-1.67,6.76-1.12,1.72-2.58,3.07-4.41,4.03-1.82.96-3.8,1.7-5.93,2.2v.38c.81.51,1.67,1.33,2.58,2.47.91,1.14,2.15,2.83,3.72,5.05,1.57,2.23,3.72,5.27,6.46,9.12,1.16,1.67,2.37,2.74,3.61,3.19,1.24.46,2.72.68,4.45.68v3.27h-17.25c-1.72-3.04-3.14-5.55-4.26-7.52-1.12-1.98-2.07-3.61-2.85-4.9-.79-1.29-1.5-2.47-2.13-3.53-.63-1.06-1.33-2.2-2.09-3.42-.66-1.17-1.33-1.9-2.01-2.2-.68-.3-1.69-.46-3-.46h-1.52v11.78c0,2.03.18,3.55.53,4.56.35,1.01,1.06,1.67,2.13,1.98,1.06.3,2.68.46,4.86.46v3.27ZM232.28,52.43l2.89.08c2.53-.15,4.66-.56,6.38-1.22,1.72-.66,3.03-1.76,3.91-3.31.89-1.54,1.33-3.69,1.33-6.42,0-2.89-.77-5.21-2.32-6.95-1.55-1.75-4.09-2.62-7.64-2.62-.81,0-1.6.01-2.36.04-.76.03-1.5.09-2.2.19v20.22Z"/>
        <path class="st0" d="M292.55,79.26c-7.9,0-13.6-1.54-17.1-4.64-3.5-3.09-5.24-8.16-5.24-15.2v-21.2c0-1.77-.18-3.14-.53-4.1-.36-.96-1.04-1.63-2.05-2.01-1.01-.38-2.53-.57-4.56-.57v-3.27h25.61v3.27c-2.03,0-3.56.19-4.6.57-1.04.38-1.72,1.08-2.05,2.09-.33,1.01-.49,2.48-.49,4.41v19.46c0,3.29.38,6.04,1.14,8.25.76,2.2,2.08,3.85,3.95,4.94,1.87,1.09,4.48,1.63,7.83,1.63,4.76,0,8.23-1.08,10.41-3.23,2.18-2.15,3.27-5.84,3.27-11.06v-17.25c0-2.68-.15-4.74-.46-6.16-.3-1.42-.96-2.38-1.98-2.89-1.01-.51-2.58-.76-4.71-.76v-3.27h19.76v3.27c-2.18,0-3.79.25-4.83.76-1.04.51-1.7,1.44-1.98,2.81-.28,1.37-.42,3.37-.42,6v17.02c0,7.04-1.61,12.33-4.83,15.85s-8.6,5.28-16.15,5.28Z"/>
        <path class="st0" d="M364.82,78.2h-43.55v-3.27c1.72,0,3.1-.14,4.14-.42,1.04-.28,1.79-.86,2.24-1.75s.68-2.27.68-4.14v-30.17c0-1.92-.15-3.37-.46-4.33-.3-.96-.96-1.62-1.98-1.98-1.01-.35-2.56-.53-4.64-.53v-3.34h42.71l.46,13.76h-3.88c-.36-2.28-.85-4.08-1.48-5.4-.63-1.32-1.66-2.24-3.08-2.77-1.42-.53-3.55-.8-6.38-.8h-10.03v17.48h6.76c2.53,0,4.38-.13,5.55-.38,1.17-.25,1.91-.84,2.24-1.75.33-.91.49-2.36.49-4.33h3.57v17.56h-3.57c0-2.13-.17-3.69-.49-4.67-.33-.99-1.08-1.62-2.24-1.9-1.17-.28-3.02-.42-5.55-.42h-6.76v18.92h8.97c2.48,0,4.53-.15,6.16-.46,1.62-.3,2.93-.84,3.91-1.6.99-.76,1.81-1.81,2.47-3.15.66-1.34,1.29-3.05,1.9-5.13h3.65l-1.82,14.97Z"/>
        <path class="st0" d="M216.39,143.73h-8.74l-29.11-39.22h-2.74l-2.28-3.72c-.86-1.27-1.66-2.19-2.39-2.77-.74-.58-1.51-.98-2.32-1.18-.81-.2-1.75-.3-2.81-.3v-3.27h18.24l26.68,35.8h.38v-22.72c0-1.98-.11-3.7-.34-5.17-.23-1.47-.84-2.61-1.82-3.42-.99-.81-2.67-1.22-5.05-1.22v-3.27h19.15v3.27c-2.18,0-3.75.41-4.71,1.22-.96.81-1.56,1.95-1.79,3.42-.23,1.47-.34,3.19-.34,5.17v37.39ZM185.08,143.2h-19.08v-3.27c2.03,0,3.55-.68,4.56-2.05,1.01-1.37,1.7-3.15,2.05-5.36s.53-4.57.53-7.11v-26.37h5.02v31.84c0,2.53.18,4.45.53,5.74s1.04,2.17,2.05,2.62c1.01.46,2.46.68,4.33.68v3.27Z"/>
        <path class="st0" d="M249.99,144.26c-5.32,0-9.84-1.01-13.57-3.04-3.72-2.03-6.56-4.99-8.51-8.89-1.95-3.9-2.93-8.61-2.93-14.14s.99-9.91,2.96-13.76c1.98-3.85,4.84-6.83,8.59-8.93,3.75-2.1,8.23-3.15,13.45-3.15s9.84,1,13.57,3c3.72,2,6.56,4.88,8.51,8.63,1.95,3.75,2.93,8.26,2.93,13.53s-.98,10.29-2.93,14.29c-1.95,4-4.79,7.08-8.51,9.23-3.72,2.15-8.25,3.23-13.57,3.23ZM250.06,140.31c4.41,0,7.69-1.81,9.84-5.43,2.15-3.62,3.23-9.33,3.23-17.14,0-4.71-.54-8.66-1.63-11.86-1.09-3.19-2.64-5.61-4.64-7.26-2-1.65-4.37-2.47-7.11-2.47-4,0-7.16,1.85-9.46,5.55-2.31,3.7-3.46,9.04-3.46,16.04s1.09,12.69,3.27,16.64c2.18,3.95,5.5,5.93,9.96,5.93Z"/>
        <path class="st0" d="M303.95,143.2h-25.92v-3.27c1.92,0,3.39-.15,4.41-.46,1.01-.3,1.71-.96,2.09-1.98.38-1.01.57-2.56.57-4.64v-30.4c0-1.52-.17-2.71-.49-3.57-.33-.86-1-1.47-2.01-1.82s-2.53-.53-4.56-.53v-3.27h24.78c3.55,0,6.83.39,9.84,1.18,3.01.79,5.45,2.1,7.3,3.95,1.85,1.85,2.77,4.4,2.77,7.64,0,2.79-.56,5.04-1.67,6.76-1.12,1.72-2.58,3.07-4.41,4.03-1.82.96-3.8,1.7-5.93,2.2v.38c.81.51,1.67,1.33,2.58,2.47.91,1.14,2.15,2.83,3.72,5.05,1.57,2.23,3.72,5.27,6.46,9.12,1.16,1.67,2.37,2.74,3.61,3.19,1.24.46,2.72.68,4.45.68v3.27h-17.25c-1.72-3.04-3.14-5.55-4.26-7.52-1.12-1.98-2.07-3.61-2.85-4.9-.79-1.29-1.5-2.47-2.13-3.53-.63-1.06-1.33-2.2-2.09-3.42-.66-1.17-1.33-1.9-2.01-2.2-.68-.3-1.69-.46-3-.46h-1.52v11.78c0,2.03.18,3.55.53,4.56.35,1.01,1.06,1.67,2.13,1.98,1.06.3,2.68.46,4.86.46v3.27ZM296.42,117.43l2.89.08c2.53-.15,4.66-.56,6.38-1.22,1.72-.66,3.03-1.76,3.91-3.31.89-1.54,1.33-3.69,1.33-6.42,0-2.89-.77-5.21-2.32-6.95-1.55-1.75-4.09-2.62-7.64-2.62-.81,0-1.6.01-2.36.04-.76.03-1.5.09-2.2.19v20.22Z"/>
        <path class="st0" d="M363.45,143.2h-26.07v-3.27c2.23,0,3.86-.16,4.9-.49,1.04-.33,1.72-1.05,2.05-2.17.33-1.11.49-2.81.49-5.09v-34.66h-3.42c-2.79,0-4.88.33-6.27.99-1.39.66-2.39,1.77-3,3.34-.61,1.57-1.19,3.72-1.75,6.46h-3.8l.84-15.05h46.28l.68,15.05h-3.8c-.56-2.74-1.15-4.89-1.79-6.46-.63-1.57-1.63-2.69-3-3.34-1.37-.66-3.47-.99-6.31-.99h-3.34v34.66c0,2.28.16,3.98.49,5.09.33,1.12,1.01,1.84,2.05,2.17,1.04.33,2.62.49,4.75.49v3.27Z"/>
        <path class="st0" d="M400.39,143.2h-25.23v-3.27c2.18,0,3.76-.18,4.75-.53s1.62-1.08,1.9-2.17c.28-1.09.42-2.75.42-4.98v-27.89c0-1.98-.11-3.53-.34-4.67-.23-1.14-.84-1.95-1.82-2.43-.99-.48-2.62-.72-4.9-.72v-3.27h25.54v3.27c-2.28,0-3.91.24-4.9.72-.99.48-1.61,1.28-1.86,2.39-.25,1.12-.38,2.69-.38,4.71v11.48h22.04v-11.48c0-2.03-.14-3.6-.42-4.71-.28-1.11-.91-1.91-1.9-2.39-.99-.48-2.6-.72-4.83-.72v-3.27h25.69v3.27c-2.28,0-3.93.24-4.94.72-1.01.48-1.65,1.28-1.9,2.39-.25,1.12-.38,2.69-.38,4.71v27.89c0,2.18.15,3.83.46,4.94.3,1.12.96,1.85,1.98,2.2s2.61.53,4.79.53v3.27h-25.69v-3.27c2.23,0,3.85-.18,4.86-.53s1.65-1.09,1.9-2.2c.25-1.11.38-2.76.38-4.94v-12.24h-22.04v12.24c0,2.23.13,3.89.38,4.98.25,1.09.87,1.81,1.86,2.17s2.52.53,4.6.53v3.27Z"/>
      </g>
      <g>
        <path class="st4" d="M168.33,167.74h-2.21v-15.79h9.86v1.94h-7.65v4.91h7.16v1.9h-7.16v7.05Z"/>
        <path class="st4" d="M181,165.77h8.25v1.96h-10.46v-15.79h10.12v1.94h-7.92v4.73h7.45v1.9h-7.45v5.26Z"/>
        <path class="st4" d="M192.19,151.95h5.42c1.01,0,2.02.15,3.03.45,1.01.3,1.93.77,2.74,1.41.82.64,1.48,1.46,1.98,2.45.51,1,.76,2.19.76,3.59s-.25,2.52-.76,3.51c-.5.99-1.17,1.81-1.98,2.45s-1.73,1.13-2.74,1.45c-1.01.32-2.02.48-3.03.48h-5.42v-15.79ZM194.4,165.8h2.76c.95,0,1.83-.13,2.64-.4s1.51-.65,2.1-1.16c.59-.5,1.04-1.13,1.37-1.87s.49-1.58.49-2.52-.16-1.84-.49-2.59c-.33-.74-.78-1.36-1.37-1.86-.59-.5-1.29-.88-2.1-1.14-.81-.26-1.69-.39-2.64-.39h-2.76v11.93Z"/>
        <path class="st4" d="M211.37,165.77h8.25v1.96h-10.46v-15.79h10.12v1.94h-7.92v4.73h7.45v1.9h-7.45v5.26Z"/>
        <path class="st4" d="M224.77,167.74h-2.21v-15.79h5.06c.76,0,1.48.08,2.16.23.68.16,1.28.41,1.8.75.51.34.92.79,1.21,1.35s.45,1.24.45,2.04c0,1.16-.36,2.1-1.07,2.81-.71.71-1.64,1.17-2.77,1.36l4.42,7.25h-2.68l-4.01-7.02h-2.36v7.02ZM224.77,158.86h2.54c.52,0,1-.04,1.45-.13.45-.09.84-.23,1.17-.44.33-.2.6-.46.79-.78.19-.32.29-.72.29-1.19s-.1-.87-.29-1.19c-.19-.32-.45-.58-.77-.77-.32-.19-.7-.33-1.13-.41-.43-.08-.88-.12-1.36-.12h-2.7v5.04Z"/>
        <path class="st4" d="M236.91,167.74h-2.45l6.85-15.79h2.01l6.78,15.79h-2.5l-1.61-3.88h-7.49l-1.58,3.88ZM239.27,161.92h5.91l-2.94-7.4-2.97,7.4Z"/>
        <path class="st4" d="M254.32,165.77h7.05v1.96h-9.25v-15.79h2.21v13.83Z"/>
        <path class="st4" d="M276.4,154.87c-.31-.43-.74-.78-1.27-1.06-.54-.27-1.14-.41-1.81-.41-.36,0-.72.05-1.08.14-.36.1-.7.25-.99.47-.3.22-.54.48-.72.8-.19.32-.28.7-.28,1.15s.09.79.26,1.08c.17.29.4.54.69.74.29.2.63.37,1.03.51.39.14.81.29,1.26.44.54.16,1.08.35,1.63.56.55.21,1.05.48,1.49.83.45.34.81.77,1.09,1.28.28.51.42,1.16.42,1.95s-.15,1.53-.46,2.13c-.3.6-.71,1.1-1.22,1.49-.5.39-1.09.69-1.75.88-.66.19-1.34.29-2.04.29-1,0-1.96-.19-2.89-.58-.93-.39-1.7-.96-2.31-1.72l1.72-1.45c.37.55.87,1,1.49,1.34.62.34,1.3.51,2.03.51.37,0,.74-.05,1.12-.16.37-.1.71-.27,1.01-.49.3-.22.55-.5.75-.84.19-.33.29-.74.29-1.22s-.1-.87-.3-1.19c-.2-.32-.47-.59-.81-.81-.34-.22-.74-.41-1.19-.57-.45-.16-.93-.32-1.44-.48-.5-.15-1-.33-1.49-.55-.49-.21-.93-.49-1.32-.83-.39-.33-.7-.75-.94-1.24-.24-.49-.36-1.1-.36-1.83,0-.79.16-1.46.48-2.03.32-.56.74-1.03,1.25-1.4.51-.37,1.09-.64,1.74-.81.65-.17,1.3-.26,1.95-.26.92,0,1.78.16,2.59.49s1.45.77,1.94,1.32l-1.56,1.52Z"/>
        <path class="st4" d="M297.16,159.82c0,1.22-.21,2.34-.64,3.36-.42,1.02-1.01,1.9-1.75,2.63-.74.74-1.63,1.31-2.65,1.72-1.03.41-2.14.61-3.34.61s-2.32-.2-3.33-.61c-1.02-.41-1.9-.98-2.64-1.72-.74-.74-1.32-1.61-1.74-2.63-.42-1.02-.62-2.14-.62-3.36s.21-2.36.62-3.38,1-1.89,1.74-2.61c.74-.72,1.62-1.28,2.64-1.68s2.13-.6,3.33-.6,2.32.2,3.34.6c1.03.4,1.91.96,2.65,1.68.74.72,1.33,1.59,1.75,2.61s.64,2.14.64,3.38ZM294.77,159.82c0-.86-.14-1.68-.42-2.44s-.68-1.44-1.2-2.02c-.52-.58-1.15-1.04-1.88-1.37-.74-.33-1.56-.5-2.49-.5s-1.73.17-2.46.5c-.74.33-1.36.79-1.87,1.37-.51.58-.91,1.25-1.19,2.02s-.42,1.58-.42,2.44.14,1.7.42,2.47c.28.77.68,1.45,1.2,2.02s1.14,1.02,1.87,1.35c.73.33,1.55.49,2.45.49s1.73-.16,2.48-.49c.74-.33,1.38-.78,1.9-1.35s.92-1.25,1.2-2.02c.28-.77.42-1.6.42-2.47Z"/>
        <path class="st4" d="M302.38,165.77h7.05v1.96h-9.25v-15.79h2.21v13.83Z"/>
        <path class="st4" d="M317.05,168.14c-1.04,0-1.95-.17-2.72-.52-.77-.35-1.41-.81-1.92-1.39-.51-.58-.88-1.25-1.13-2-.25-.75-.37-1.53-.37-2.33v-9.95h2.21v9.81c0,.54.07,1.07.2,1.59.13.53.35,1,.66,1.42s.71.75,1.21,1,1.12.38,1.86.38,1.35-.13,1.85-.38.91-.59,1.21-1,.53-.89.66-1.42c.13-.53.2-1.06.2-1.59v-9.81h2.21v9.95c0,.8-.12,1.58-.37,2.33-.25.75-.62,1.42-1.13,2s-1.14,1.04-1.92,1.39c-.77.35-1.68.52-2.72.52Z"/>
        <path class="st4" d="M332.44,167.74h-2.21v-13.85h-5.06v-1.94h12.33v1.94h-5.06v13.85Z"/>
        <path class="st4" d="M341.8,167.74h-2.21v-15.79h2.21v15.79Z"/>
        <path class="st4" d="M361.56,159.82c0,1.22-.21,2.34-.63,3.36-.42,1.02-1.01,1.9-1.75,2.63-.74.74-1.63,1.31-2.65,1.72-1.03.41-2.14.61-3.35.61s-2.31-.2-3.33-.61c-1.02-.41-1.9-.98-2.64-1.72-.74-.74-1.32-1.61-1.74-2.63-.42-1.02-.62-2.14-.62-3.36s.21-2.36.62-3.38,1-1.89,1.74-2.61c.74-.72,1.62-1.28,2.64-1.68,1.02-.4,2.13-.6,3.33-.6s2.32.2,3.35.6,1.91.96,2.65,1.68c.74.72,1.33,1.59,1.75,2.61s.63,2.14.63,3.38ZM359.18,159.82c0-.86-.14-1.68-.42-2.44-.28-.77-.68-1.44-1.21-2.02-.52-.58-1.15-1.04-1.88-1.37-.73-.33-1.56-.5-2.49-.5s-1.73.17-2.46.5c-.74.33-1.36.79-1.87,1.37-.51.58-.91,1.25-1.19,2.02-.28.77-.42,1.58-.42,2.44s.14,1.7.42,2.47c.28.77.68,1.45,1.2,2.02.52.57,1.14,1.02,1.87,1.35.73.33,1.55.49,2.45.49s1.73-.16,2.48-.49c.74-.33,1.38-.78,1.89-1.35.52-.57.92-1.25,1.21-2.02.28-.77.42-1.6.42-2.47Z"/>
        <path class="st4" d="M375.7,164.57h.04v-12.62h2.21v15.79h-2.79l-8.34-12.89h-.04v12.89h-2.21v-15.79h2.88l8.25,12.62Z"/>
        <path class="st4" d="M389.64,154.87c-.31-.43-.74-.78-1.27-1.06-.54-.27-1.14-.41-1.81-.41-.36,0-.72.05-1.08.14-.36.1-.7.25-.99.47s-.54.48-.72.8c-.19.32-.28.7-.28,1.15s.09.79.26,1.08c.17.29.4.54.69.74.29.2.63.37,1.03.51.39.14.81.29,1.26.44.54.16,1.08.35,1.63.56.55.21,1.05.48,1.49.83.45.34.81.77,1.09,1.28.28.51.42,1.16.42,1.95s-.15,1.53-.46,2.13c-.3.6-.71,1.1-1.22,1.49-.5.39-1.09.69-1.75.88-.66.19-1.34.29-2.04.29-1,0-1.96-.19-2.89-.58-.93-.39-1.7-.96-2.31-1.72l1.72-1.45c.37.55.87,1,1.49,1.34.62.34,1.3.51,2.03.51.37,0,.74-.05,1.12-.16.37-.1.71-.27,1.02-.49.3-.22.55-.5.75-.84.19-.33.29-.74.29-1.22s-.1-.87-.3-1.19c-.2-.32-.47-.59-.81-.81-.34-.22-.74-.41-1.19-.57-.45-.16-.93-.32-1.44-.48-.5-.15-1-.33-1.49-.55-.49-.21-.93-.49-1.32-.83-.39-.33-.7-.75-.94-1.24-.24-.49-.36-1.1-.36-1.83,0-.79.16-1.46.48-2.03.32-.56.74-1.03,1.25-1.4.51-.37,1.09-.64,1.74-.81s1.3-.26,1.95-.26c.92,0,1.79.16,2.59.49s1.45.77,1.94,1.32l-1.56,1.52Z"/>
        <path class="st4" d="M402.26,165.77h7.05v1.96h-9.25v-15.79h2.21v13.83Z"/>
        <path class="st4" d="M413.65,165.77h7.05v1.96h-9.25v-15.79h2.21v13.83Z"/>
        <path class="st4" d="M435.71,165.28c-.62.85-1.44,1.54-2.43,2.06-1,.53-2.19.79-3.59.79-1.21,0-2.32-.2-3.33-.61-1.02-.41-1.9-.98-2.63-1.72-.74-.74-1.31-1.61-1.73-2.63-.42-1.02-.62-2.14-.62-3.36s.21-2.36.64-3.38c.42-1.02,1.01-1.89,1.76-2.61.75-.72,1.64-1.28,2.66-1.68s2.14-.6,3.35-.6c.54,0,1.08.05,1.63.16.55.1,1.08.26,1.58.47.5.21.96.46,1.38.77.42.3.77.66,1.07,1.06l-1.74,1.34c-.39-.54-.93-.98-1.64-1.33-.71-.35-1.47-.52-2.29-.52-.92,0-1.75.17-2.49.5-.74.33-1.37.79-1.88,1.37-.52.58-.92,1.25-1.21,2.02s-.42,1.58-.42,2.44.14,1.72.41,2.5c.28.77.67,1.45,1.18,2.02.51.57,1.14,1.02,1.87,1.35.73.33,1.56.49,2.46.49s1.7-.18,2.43-.54c.73-.36,1.33-.88,1.81-1.56l1.76,1.2Z"/>
      </g>
    </g>
  </g>
</svg>